<?xml version="1.0" encoding="utf-8"?>
<!-- Generator: Adobe Illustrator 19.2.1, SVG Export Plug-In . SVG Version: 6.00 Build 0)  -->
<svg version="1.1" id="Layer_1" xmlns="http://www.w3.org/2000/svg" xmlns:xlink="http://www.w3.org/1999/xlink" x="0px" y="0px"
	 viewBox="0 0 40 40" style="enable-background:new 0 0 40 40;" xml:space="preserve">
<style type="text/css">
	.st0{fill:#FFD200;}
</style>
<g>
	<path class="st0" d="M29.7,24.1c-7.4,0-13.4-6-13.4-13.4c0-1.5,0.3-2.9,0.7-4.3c-1.4,0.5-2.8,1.2-3.9,2.1c-0.3,0.2-0.6,0.4-0.8,0.7
		C9.6,11.7,8,15.2,8,19.1c0,7.4,6,13.4,13.4,13.4c4,0,7.5-1.7,9.9-4.5c0.2-0.3,0.5-0.5,0.7-0.8c0.9-1.1,1.6-2.4,2-3.8
		C32.6,23.9,31.2,24.1,29.7,24.1z"/>
</g>
</svg>
